<svg xmlns="http://www.w3.org/2000/svg" width="493" height="312" viewBox="0 0 493 312">
  <defs>
    <linearGradient id="panel" x1="8" y1="0" x2="164" y2="312" gradientUnits="userSpaceOnUse">
      <stop stop-color="#17131f"/>
      <stop offset="0.55" stop-color="#0d111a"/>
      <stop offset="1" stop-color="#090a0c"/>
    </linearGradient>
    <linearGradient id="accent" x1="0" y1="0" x2="164" y2="0" gradientUnits="userSpaceOnUse">
      <stop stop-color="#a768ea"/>
      <stop offset="0.55" stop-color="#6585ef"/>
      <stop offset="1" stop-color="#0da5f5"/>
    </linearGradient>
    <radialGradient id="glow" cx="0" cy="0" r="1" gradientTransform="translate(140 205) rotate(132) scale(170 145)" gradientUnits="userSpaceOnUse">
      <stop stop-color="#1ea5f8" stop-opacity="0.5"/>
      <stop offset="0.48" stop-color="#6d4aff" stop-opacity="0.22"/>
      <stop offset="1" stop-color="#090a0c" stop-opacity="0"/>
    </radialGradient>
    <clipPath id="left-panel">
      <rect width="164" height="312"/>
    </clipPath>
  </defs>

  <rect width="493" height="312" fill="#f8fafc"/>
  <g clip-path="url(#left-panel)">
    <rect width="164" height="312" fill="url(#panel)"/>
    <circle cx="140" cy="205" r="170" fill="url(#glow)"/>
    <path d="M-39 250C14 204 79 183 168 189" fill="none" stroke="#ffffff" stroke-opacity="0.055" stroke-width="28"/>
    <path d="M-22 289C35 240 99 225 181 235" fill="none" stroke="#ffffff" stroke-opacity="0.04" stroke-width="2"/>
    <rect y="0" width="164" height="5" fill="url(#accent)"/>

    <image href="../../public/CSSLoaderWordmark.svg" x="12" y="24" width="140" height="25" preserveAspectRatio="xMidYMid meet"/>
    <text x="82" y="66" fill="#d9e4f2" font-family="Segoe UI, Arial, sans-serif" font-size="7" font-weight="600" letter-spacing="2.2" text-anchor="middle">FOR MILLENNIUM</text>

    <image href="../icons/icon.png" x="34" y="100" width="96" height="96"/>

    <text x="14" y="265" fill="#ffffff" font-family="Segoe UI, Arial, sans-serif" font-size="11" font-weight="600">YOUR THEMES.</text>
    <text x="14" y="282" fill="#ffffff" font-family="Segoe UI, Arial, sans-serif" font-size="11" font-weight="600">YOUR STEAM.</text>
    <rect x="14" y="294" width="62" height="2" rx="1" fill="url(#accent)"/>
  </g>
  <rect x="164" width="1" height="312" fill="#d7dce5"/>
</svg>
